<?xml version="1.0" encoding="utf-8"?>
<!-- Generator: Adobe Illustrator 20.1.0, SVG Export Plug-In . SVG Version: 6.00 Build 0)  -->
<svg version="1.1" id="Layer_1" xmlns="http://www.w3.org/2000/svg" xmlns:xlink="http://www.w3.org/1999/xlink" x="0px" y="0px"
	 viewBox="0 0 104.7 82.5" style="enable-background:new 0 0 104.7 82.5;" xml:space="preserve">
<style type="text/css">
	.st0{fill:#424242;}
</style>
<g>
	<g>
		<g>
			<path class="st0" d="M6.3,82.5v-5.7h4.9c0.9,0,1.3,0.4,1.3,1.1v1.3c0,0.7-0.4,1.1-1.3,1.1H7.6v2.2H6.3z M10.6,77.8h-3v1.5h3
				c0.2,0,0.4,0,0.4-0.1c0.1-0.1,0.2-0.2,0.2-0.4v-0.6c0-0.2-0.1-0.3-0.2-0.4C10.9,77.8,10.8,77.8,10.6,77.8z"/>
			<path class="st0" d="M20.3,82.5v-5.7h4.9c0.9,0,1.3,0.4,1.3,1.1v1.3c0,0.7-0.4,1.1-1.3,1.1h-0.8l2.6,2.2h-1.9l-2.3-2.2h-1.3v2.2
				H20.3z M24.6,77.8h-3v1.6h3c0.2,0,0.4,0,0.4-0.1c0.1-0.1,0.2-0.2,0.2-0.4v-0.7c0-0.2-0.1-0.3-0.2-0.4
				C25,77.8,24.8,77.8,24.6,77.8z"/>
			<path class="st0" d="M33.9,82.5l3.2-5.7h1.3l3.3,5.7h-1.5l-0.7-1.3h-3.6l-0.7,1.3H33.9z M36.5,80.2H39l-1.2-2.3L36.5,80.2z"/>
			<path class="st0" d="M51.3,82.5L48,76.8h1.5l2.3,4.1l2.2-4.1h1.3l-3.2,5.7H51.3z"/>
			<path class="st0" d="M62.6,78.1c0-0.5,0.1-0.9,0.3-1.1s0.6-0.3,1.1-0.3h4.2c0.5,0,0.9,0.1,1.1,0.3s0.3,0.5,0.3,1.1v3
				c0,0.5-0.1,0.9-0.3,1.1c-0.2,0.2-0.6,0.3-1.1,0.3H64c-0.5,0-0.9-0.1-1.1-0.3c-0.2-0.2-0.3-0.5-0.3-1.1V78.1z M64,81.5h4.4v-3.6
				H64V81.5z"/>
			<path class="st0" d="M78.3,82.5v-5.7h1.3v4.7h4.3v1.1H78.3z"/>
			<path class="st0" d="M90.6,82.5l3.2-5.7h1.3l3.3,5.7h-1.5l-0.7-1.3h-3.6l-0.7,1.3H90.6z M93.1,80.2h2.5l-1.2-2.3L93.1,80.2z"/>
		</g>
	</g>
	<g>
		<g>
			<path class="st0" d="M93.1,34c11.2-5.3,11.5-16.1,11.5-16.1c-2.5,2.5-6.9,3.3-6.9,3.3c8.6-9.6,5.5-21.3,5.5-21.3
				c-0.8,5.5-4.2,9.8-9.3,13.5c-9.8,7-24.4,14.5-33.4,18.8c10.7,4.4,9,7.6,9,7.6c5.1,3.9,0.7,7.1,0.7,7.1v-2.1
				c-7.9-1.8-16.1,5-17.9,11.4V36.1c0,0-26.4-11.7-41.6-22.6C5.6,9.8,2.2,5.5,1.4,0c0,0-3.1,11.7,5.5,21.3c0,0-4.4-0.8-6.9-3.3
				C0,18,0.4,28.7,11.5,34c0,0-6.2,0.3-7.8-2.1c0,0,1.8,10.6,12.7,12.2c0,0-1.3,2.1-4.7,2.6c0,0,4.2,6.8,14.3,5.7
				c0,0-0.4,2.2-4.3,2.9c0,0,5.9,4.9,14.7,0.8c5.2,0.3,9.8,3.5,15.9,10.4c6.1-6.9,10.7-10.1,15.9-10.4c8.8,4.2,14.7-0.8,14.7-0.8
				c-3.8-0.6-4.3-2.9-4.3-2.9c10.1,1,14.3-5.7,14.3-5.7c-3.4-0.5-4.7-2.6-4.7-2.6C99.1,42.6,100.9,32,100.9,32
				C99.4,34.3,93.1,34,93.1,34z"/>
			<path class="st0" d="M68.6,39.9c-2.6-0.6-3.5-1.7-4.9-2.9c-0.5,2.4,2.5,3.5,2.5,3.5C66.7,39.9,68.6,39.9,68.6,39.9z"/>
		</g>
	</g>
</g>
</svg>
