<?xml version="1.0" encoding="utf-8"?>
<!-- Generator: Adobe Illustrator 16.0.0, SVG Export Plug-In . SVG Version: 6.00 Build 0)  -->
<!DOCTYPE svg PUBLIC "-//W3C//DTD SVG 1.1//EN" "http://www.w3.org/Graphics/SVG/1.1/DTD/svg11.dtd">
<svg version="1.1" id="Layer_1" xmlns="http://www.w3.org/2000/svg" xmlns:xlink="http://www.w3.org/1999/xlink" x="0px" y="0px"
	 width="16.707px" height="17.992px" viewBox="0 0 16.707 17.992" enable-background="new 0 0 16.707 17.992" xml:space="preserve">
<g>
	<path fill="#3989CE" d="M16.707,16.707c0,0.703-0.582,1.285-1.285,1.285H1.285C0.582,17.992,0,17.41,0,16.707V3.855
		C0,3.152,0.582,2.57,1.285,2.57H2.57V1.606C2.57,0.723,3.293,0,4.177,0h0.643c0.884,0,1.606,0.723,1.606,1.606V2.57h3.855V1.606
		C10.281,0.723,11.004,0,11.888,0h0.643c0.884,0,1.606,0.723,1.606,1.606V2.57h1.285c0.703,0,1.285,0.582,1.285,1.285V16.707z
		 M4.177,9.317V6.426H1.285v2.892H4.177z M4.177,13.173V9.96H1.285v3.213H4.177z M4.177,16.707v-2.892H1.285v2.892H4.177z
		 M5.141,1.606c0-0.171-0.15-0.321-0.321-0.321H4.177c-0.171,0-0.321,0.15-0.321,0.321v2.892c0,0.171,0.15,0.321,0.321,0.321h0.643
		c0.171,0,0.321-0.15,0.321-0.321V1.606z M8.032,9.317V6.426H4.819v2.892H8.032z M8.032,13.173V9.96H4.819v3.213H8.032z
		 M8.032,16.707v-2.892H4.819v2.892H8.032z M11.888,9.317V6.426H8.675v2.892H11.888z M11.888,13.173V9.96H8.675v3.213H11.888z
		 M11.888,16.707v-2.892H8.675v2.892H11.888z M12.852,1.606c0-0.171-0.15-0.321-0.321-0.321h-0.643c-0.171,0-0.321,0.15-0.321,0.321
		v2.892c0,0.171,0.15,0.321,0.321,0.321h0.643c0.171,0,0.321-0.15,0.321-0.321V1.606z M15.422,9.317V6.426H12.53v2.892H15.422z
		 M15.422,13.173V9.96H12.53v3.213H15.422z M15.422,16.707v-2.892H12.53v2.892H15.422z"/>
</g>
</svg>
