<?xml version="1.0" encoding="utf-8"?>
<!-- Generator: Adobe Illustrator 20.1.0, SVG Export Plug-In . SVG Version: 6.00 Build 0)  -->
<svg version="1.1" id="Layer_1" xmlns="http://www.w3.org/2000/svg" xmlns:xlink="http://www.w3.org/1999/xlink" x="0px" y="0px"
	 viewBox="0 0 153.2 120.8" style="enable-background:new 0 0 153.2 120.8;" xml:space="preserve">
<style type="text/css">
	.st0{fill:#FBB03B;}
	.st1{opacity:0.8;}
	.st2{opacity:0.5;fill:#FFFFFF;}
</style>
<g>
	<g>
		<g>
			<path class="st0" d="M10,120.8v-8.4h7.2c1.3,0,1.9,0.5,1.9,1.6v1.9c0,1.1-0.6,1.6-1.9,1.6h-5.3v3.3H10z M16.3,113.8h-4.4v2.3h4.4
				c0.3,0,0.5,0,0.6-0.1c0.2-0.1,0.2-0.3,0.2-0.6v-0.9c0-0.3-0.1-0.5-0.2-0.6C16.8,113.9,16.6,113.8,16.3,113.8z"/>
			<path class="st0" d="M30.6,120.8v-8.4h7.2c1.3,0,1.9,0.5,1.9,1.6v2c0,1.1-0.6,1.6-1.9,1.6h-1.1l3.9,3.2h-2.8l-3.4-3.2h-1.9v3.2
				H30.6z M36.9,113.8h-4.4v2.4h4.4c0.3,0,0.5,0,0.6-0.1c0.2-0.1,0.2-0.3,0.2-0.6v-1c0-0.3-0.1-0.5-0.2-0.6
				C37.4,113.9,37.2,113.8,36.9,113.8z"/>
			<path class="st0" d="M50.5,120.8l4.8-8.4h1.9l4.8,8.4h-2.2l-1-1.8h-5.3l-1,1.8H50.5z M54.2,117.5h3.7l-1.8-3.4L54.2,117.5z"/>
			<path class="st0" d="M75.9,120.8l-4.9-8.4h2.2l3.4,6.1l3.2-6.1h2l-4.6,8.4H75.9z"/>
			<path class="st0" d="M92.5,114.4c0-0.8,0.1-1.3,0.4-1.6c0.3-0.3,0.8-0.4,1.6-0.4h6.2c0.8,0,1.4,0.1,1.6,0.4s0.4,0.8,0.4,1.6v4.4
				c0,0.8-0.1,1.3-0.4,1.6s-0.8,0.4-1.6,0.4h-6.2c-0.8,0-1.4-0.1-1.6-0.4c-0.3-0.3-0.4-0.8-0.4-1.6V114.4z M94.4,119.2h6.4v-5.3
				h-6.4V119.2z"/>
			<path class="st0" d="M115.4,120.8v-8.4h2v6.8h6.3v1.6H115.4z"/>
			<path class="st0" d="M133.4,120.8l4.8-8.4h1.9l4.8,8.4h-2.2l-1-1.8h-5.3l-1,1.8H133.4z M137.2,117.5h3.7L139,114L137.2,117.5z"/>
		</g>
	</g>
	<g class="st1">
		<g>
			<path class="st2" d="M136.3,49.8c16.4-7.8,16.9-23.5,16.9-23.5c-3.6,3.6-10.1,4.9-10.1,4.9c12.6-14.1,8-31.2,8-31.2
				c-1.2,8-6.2,14.4-13.7,19.8c-14.4,10.3-35.7,21.2-48.9,27.5c15.7,6.4,13.2,11.2,13.2,11.2c7.5,5.7,1,10.3,1,10.3v-3
				c-11.6-2.6-23.6,7.4-26.2,16.6V52.9c0,0-38.7-17.2-60.9-33.1C8.2,14.4,3.2,8,2,0c0,0-4.5,17.1,8,31.2c0,0-6.4-1.2-10.1-4.9
				c0,0,0.5,15.7,16.9,23.5c0,0-9.1,0.4-11.4-3c0,0,2.6,15.5,18.6,17.9c0,0-1.9,3-6.8,3.8c0,0,6.1,9.9,20.9,8.4c0,0-0.6,3.3-6.2,4.2
				c0,0,8.6,7.2,21.5,1.1c7.6,0.4,14.3,5.2,23.2,15.2c8.9-10.1,15.6-14.8,23.2-15.2c12.9,6.1,21.5-1.1,21.5-1.1
				c-5.6-0.9-6.2-4.2-6.2-4.2c14.8,1.5,20.9-8.4,20.9-8.4c-4.9-0.8-6.8-3.8-6.8-3.8c16-2.3,18.6-17.9,18.6-17.9
				C145.5,50.2,136.3,49.8,136.3,49.8z"/>
			<path class="st2" d="M150.9,5.2c0.4,6-0.5,16.3-8.5,25.3l-2,2.2l2.9-0.6c0.2,0,4.8-0.9,8.5-3.5c-0.9,4.6-4.2,14.6-16,20.2
				l-3.6,1.7l4,0.2c0,0,0.3,0,0.9,0c2.4,0,6.1-0.2,8.8-1.5c-1.6,4.4-6,12.7-17,14.3l-1.5,0.2l0.8,1.3c0.1,0.1,1.8,2.8,6,3.9
				c-1.9,2.2-6.9,6.9-16.1,6.9c-1,0-1.9-0.1-2.9-0.2l-1.3-0.1l0.2,1.3c0,0.1,0.6,3,4.7,4.4c-1.8,1-4.8,2.2-8.8,2.2
				c-3.2,0-6.5-0.8-9.8-2.3l-0.2-0.1l-0.3,0c-7.4,0.4-14.1,4.6-23.2,14.7c-9-10.1-15.8-14.3-23.2-14.7l-0.3,0L53,81.3
				c-3.3,1.6-6.6,2.3-9.8,2.3c-3.9,0-7-1.2-8.8-2.2c4.1-1.4,4.7-4.3,4.7-4.4l0.2-1.3l-1.3,0.1c-1,0.1-2,0.2-2.9,0.2
				C26,76,20.9,71.4,19,69.1c4.2-1.1,5.9-3.8,6-3.9l0.8-1.3l-1.5-0.2C13.1,62,8.8,53.8,7.2,49.4c2.7,1.2,6.4,1.5,8.9,1.5
				c0.5,0,0.9,0,0.9,0l4-0.2l-3.6-1.7C5.5,43.3,2.2,33.3,1.3,28.7c3.7,2.5,8.3,3.4,8.5,3.5l2.9,0.6l-2-2.2c-8-9-8.8-19.4-8.5-25.3
				c2.1,5.7,6.3,10.7,12.8,15.4c20.6,14.7,55.5,30.7,60.5,33v28.9v7.2l2-6.9c2.2-7.7,11.6-16.3,21.5-16.3c0.9,0,1.9,0.1,2.8,0.2v2.2
				v2l1.6-1.2c0.1-0.1,2.9-2.2,3-5.4c0-2.1-1.1-4.2-3.5-6.1c0.1-0.5,0-1.1-0.3-1.9c-1.1-3-5-6-11.6-8.9c14.4-7,33.6-17,47.1-26.6
				C144.6,15.9,148.8,10.9,150.9,5.2 M151.2,0c-1.2,8-6.2,14.4-13.7,19.8c-14.4,10.3-35.7,21.2-48.9,27.5
				c15.7,6.4,13.2,11.2,13.2,11.2c7.5,5.7,1,10.3,1,10.3v-3c-1.3-0.3-2.5-0.4-3.8-0.4c-10.3,0-20.1,8.8-22.5,17.1V52.9
				c0,0-38.7-17.2-60.9-33.1C8.2,14.4,3.2,8,2,0c0,0-4.5,17.1,8,31.2c0,0-6.4-1.2-10.1-4.9c0,0,0.5,15.7,16.9,23.5c0,0-0.3,0-0.8,0
				c-2.3,0-8.7-0.3-10.6-3.1c0,0,2.6,15.5,18.6,17.9c0,0-1.9,3-6.8,3.8c0,0,5.2,8.5,17.9,8.5c1,0,2-0.1,3-0.2c0,0-0.6,3.3-6.2,4.2
				c0,0,4.3,3.6,11.2,3.6c3,0,6.4-0.6,10.2-2.4c7.6,0.4,14.3,5.2,23.2,15.2c8.9-10.1,15.6-14.8,23.2-15.2c3.8,1.8,7.3,2.4,10.2,2.4
				c7,0,11.2-3.6,11.2-3.6c-5.6-0.9-6.2-4.2-6.2-4.2c1.1,0.1,2.1,0.2,3,0.2c12.6,0,17.9-8.5,17.9-8.5c-4.9-0.8-6.8-3.8-6.8-3.8
				c16-2.3,18.6-17.9,18.6-17.9c-1.9,2.8-8.3,3.1-10.6,3.1c-0.5,0-0.8,0-0.8,0c16.4-7.8,16.9-23.5,16.9-23.5
				c-3.6,3.6-10.1,4.9-10.1,4.9C155.7,17.1,151.2,0,151.2,0L151.2,0z"/>
			<path class="st2" d="M100.4,58.4c-3.8-0.9-5.2-2.5-7.2-4.2c-0.7,3.5,3.6,5.2,3.6,5.2C97.6,58.3,100.4,58.4,100.4,58.4z"/>
			<path class="st2" d="M95,57.1c0.5,0.4,1.1,0.7,1.7,1.1c0,0-0.1,0-0.1,0.1C96.2,58,95.5,57.6,95,57.1 M93.1,54.2
				c-0.7,3.5,3.6,5.2,3.6,5.2c0.7-0.9,2.8-1,3.4-1c0.1,0,0.2,0,0.2,0C96.5,57.5,95.2,55.9,93.1,54.2L93.1,54.2z"/>
		</g>
	</g>
</g>
</svg>
